<?xml version="1.0" encoding="UTF-8"?>
<svg width="16px" height="16px" viewBox="0 0 16 16" version="1.1" xmlns="http://www.w3.org/2000/svg" xmlns:xlink="http://www.w3.org/1999/xlink">
    <title>Ui/Icon/add</title>
    <g id="Ui/Icon/add" stroke="none" stroke-width="1" fill="none" fill-rule="evenodd">
        <g id="add" fill="#415971" fill-rule="nonzero">
            <rect id="Rectangle" opacity="0" x="0" y="0" width="16" height="16"></rect>
            <path d="M2,1 L14,1 C14.5522847,1 15,1.44771525 15,2 L15,14 C15,14.5522847 14.5522847,15 14,15 L2,15 C1.44771525,15 1,14.5522847 1,14 L1,2 C1,1.44771525 1.44771525,1 2,1 Z M2,2.5 L2,13.5 C2,13.7761424 2.22385763,14 2.5,14 L13.5,14 C13.7761424,14 14,13.7761424 14,13.5 L14,2.5 C14,2.22385763 13.7761424,2 13.5,2 L2.5,2 C2.22385763,2 2,2.22385763 2,2.5 Z M8,4 C8.27614237,4 8.5,4.22385763 8.5,4.5 L8.5,11.5 C8.5,11.7761424 8.27614237,12 8,12 C7.72385763,12 7.5,11.7761424 7.5,11.5 L7.5,4.5 C7.5,4.22385763 7.72385763,4 8,4 Z M12,8 C12,8.27614237 11.7761424,8.5 11.5,8.5 L4.50142045,8.5 C4.22527808,8.5 4.00142045,8.27614237 4.00142045,8 C4.00142045,7.72385763 4.22527808,7.5 4.50142045,7.5 L11.5,7.5 C11.7761424,7.5 12,7.72385763 12,8 Z" id="Shape"></path>
        </g>
    </g>
</svg>