<?xml version="1.0" encoding="UTF-8"?>
<svg width="16px" height="16px" viewBox="0 0 16 16" version="1.1" xmlns="http://www.w3.org/2000/svg" xmlns:xlink="http://www.w3.org/1999/xlink">
    <title>Ui/Icon/bookmark</title>
    <g id="Ui/Icon/bookmark" stroke="none" stroke-width="1" fill="none" fill-rule="evenodd">
        <g id="bookmark" fill="#415971" fill-rule="nonzero">
            <rect id="Rectangle" opacity="0" x="0" y="0" width="16" height="16"></rect>
            <g id="bookmark-a-link" transform="translate(3.000000, 1.000000)">
                <path d="M3.77507536e-09,13.5157835 L0.00685288,0.48249139 C0.00685288,0.21579427 0.20884348,0 0.45846568,0 L9.5552368,0 C9.8048658,0 10.0068496,0.21580151 10.0068496,0.48249139 L10,13.5157835 C10,13.6938904 9.9073832,13.8588108 9.7600807,13.9426678 C9.6118953,14.0265393 9.4328421,14.0152297 9.294355,13.9153395 L4.99315202,9.278838 L0.70564826,13.9153395 C0.61920732,13.9784783 0.51424121,14.0076907 0.40927736,13.9982677 C0.17642581,13.9747158 -0.00087738,13.7655114 3.77507536e-09,13.5157835 Z M1,12 L4.74315039,8 C4.89419261,7.88611228 5.09210594,7.88611228 5.24315039,8 L9,12 L9.0068496,1.03744276 L1.00684961,1.03744276 L1,12 Z" id="bookmark-a"></path>
            </g>
        </g>
    </g>
</svg>