<?xml version="1.0" encoding="UTF-8"?>
<svg width="24px" height="24px" viewBox="0 0 24 24" version="1.1" xmlns="http://www.w3.org/2000/svg" xmlns:xlink="http://www.w3.org/1999/xlink">
    <title>book-open</title>
    <g id="Pulse" stroke="none" stroke-width="1" fill="none" fill-rule="evenodd">
        <g id="01_01_Overview" transform="translate(-33.000000, -370.000000)">
            <g id="Group-33" transform="translate(33.000000, 370.000000)">
                <rect id="Rectangle" fill="#D8D8D8" opacity="0" x="0" y="0" width="24" height="24"></rect>
                <path d="M12,5.39222222 L12,19.8366667 M12,5.39222222 C10.7022222,4.53 8.94,4 7,4 C5.06,4 3.29777778,4.53 2,5.39222222 L2,19.8366667 C3.29777778,18.9744444 5.06,18.4444444 7,18.4444444 C8.94,18.4444444 10.7022222,18.9744444 12,19.8366667 M12,5.39222222 C13.2977778,4.53 15.06,4 17,4 C18.9411111,4 20.7022222,4.53 22,5.39222222 L22,19.8366667 C20.7022222,18.9744444 18.9411111,18.4444444 17,18.4444444 C15.06,18.4444444 13.2977778,18.9744444 12,19.8366667" id="Shape" stroke="#415971" stroke-width="1.5" stroke-linecap="round" stroke-linejoin="round"></path>
            </g>
        </g>
    </g>
</svg>