<?xml version="1.0" encoding="UTF-8"?>
<svg width="16px" height="16px" viewBox="0 0 16 16" version="1.1" xmlns="http://www.w3.org/2000/svg" xmlns:xlink="http://www.w3.org/1999/xlink">
    <title>Ui/Icon/briefcase</title>
    <g id="Ui/Icon/briefcase" stroke="none" stroke-width="1" fill="none" fill-rule="evenodd">
        <g id="briefcase" fill="#415971" fill-rule="nonzero">
            <rect id="Rectangle" opacity="0" x="0" y="0" width="16" height="16"></rect>
            <path d="M2,5.5 L2,12.5 C2,12.7761424 2.22385763,13 2.5,13 L13.5,13 C13.7761424,13 14,12.7761424 14,12.5 L14,5.5 C14,5.22385763 13.7761424,5 13.5,5 L2.5,5 C2.22385763,5 2,5.22385763 2,5.5 Z M5,4 L5,3 C5,2.44771525 5.44771525,2 6,2 L10,2 C10.5522847,2 11,2.44771525 11,3 L11,4 L14,4 C14.5522847,4 15,4.44771525 15,5 L15,13 C15,13.5522847 14.5522847,14 14,14 L2,14 C1.44771525,14 1,13.5522847 1,13 L1,5 C1,4.44771525 1.44771525,4 2,4 L5,4 Z M6,4 L10,4 L10,3.5 C10,3.22385763 9.77614237,3 9.5,3 L6.5,3 C6.22385763,3 6,3.22385763 6,3.5 L6,4 Z" id="Shape"></path>
        </g>
    </g>
</svg>