<?xml version="1.0" encoding="UTF-8"?>
<svg width="16px" height="16px" viewBox="0 0 16 16" version="1.1" xmlns="http://www.w3.org/2000/svg" xmlns:xlink="http://www.w3.org/1999/xlink">
    <title>Ui/Icon/calendar</title>
    <g id="Ui/Icon/calendar" stroke="none" stroke-width="1" fill="none" fill-rule="evenodd">
        <g id="calendar" fill="#415971" fill-rule="nonzero">
            <rect id="Rectangle" opacity="0" x="0" y="0" width="16" height="16"></rect>
            <path d="M5.5,2 L10.5,2 C10.7761424,2 11,2.22385763 11,2.5 L11,2.5 C11,2.77614237 10.7761424,3 10.5,3 L5.5,3 C5.22385763,3 5,2.77614237 5,2.5 L5,2.5 C5,2.22385763 5.22385763,2 5.5,2 Z M12.5,4.1337822 C12.7989007,4.30668691 13,4.62985882 13,5 C13,5.55228475 12.5522847,6 12,6 C11.4477153,6 11,5.55228475 11,5 C11,4.62985882 11.2010993,4.30668691 11.5,4.1337822 L11.5,1.5 C11.5,1.22385763 11.7238576,1 12,1 C12.2761424,1 12.5,1.22385763 12.5,1.5 L12.5,4.1337822 Z M4.5,4.1337822 C4.79890069,4.30668691 5,4.62985882 5,5 C5,5.55228475 4.55228475,6 4,6 C3.44771525,6 3,5.55228475 3,5 C3,4.62985882 3.20109931,4.30668691 3.5,4.1337822 L3.5,1.5 C3.5,1.22385763 3.72385763,1 4,1 C4.27614237,1 4.5,1.22385763 4.5,1.5 L4.5,4.1337822 Z M2,7 L14,7 L14,3.25 C14,3.11192881 13.8880712,3 13.75,3 L13.5230713,3 C13.2596708,3 13.0461426,2.78647174 13.0461426,2.52307129 L13.0461426,2.5 C13.0461426,2.22385763 13.2700002,2 13.5461426,2 L14,2 C14.5522847,2 15,2.44771525 15,3 L15,14 C15,14.5522847 14.5522847,15 14,15 L2,15 C1.44771525,15 1,14.5522847 1,14 L1,3 C1,2.44771525 1.44771525,2 2,2 L2.51733398,2 C2.79347636,2 3.01733398,2.22385763 3.01733398,2.5 C3.01733398,2.77614237 2.79347636,3 2.51733398,3 L2.25,3 C2.11192881,3 2,3.11192881 2,3.25 L2,7 Z M2,8 L2,13.75 C2,13.8880712 2.11192881,14 2.25,14 L13.75,14 C13.8880712,14 14,13.8880712 14,13.75 L14,8 L2,8 Z" id="Shape"></path>
        </g>
    </g>
</svg>