<?xml version="1.0" encoding="UTF-8"?>
<svg width="16px" height="16px" viewBox="0 0 16 16" version="1.1" xmlns="http://www.w3.org/2000/svg" xmlns:xlink="http://www.w3.org/1999/xlink">
    <title>Ui/Icon/close</title>
    <g id="Ui/Icon/close" stroke="none" stroke-width="1" fill="none" fill-rule="evenodd">
        <g id="close" fill="#415971" fill-rule="nonzero">
            <rect id="Rectangle" opacity="0" x="0" y="0" width="16" height="16"></rect>
            <path d="M8,7.2715414 L14.138468,1.14789101 C14.3355554,0.950702996 14.6550971,0.950702996 14.8521845,1.14789101 C15.0492718,1.34507902 15.0492718,1.66478396 14.8521845,1.86197198 L8.71371647,7.98562237 L14.8521845,14.138028 C15.0492718,14.335216 15.0492718,14.654921 14.8521845,14.852109 C14.6550971,15.049297 14.3355554,15.049297 14.138468,14.852109 L8,8.69970333 L1.86153199,14.852109 C1.66444463,15.049297 1.34490288,15.049297 1.14781552,14.852109 C0.95072816,14.654921 0.95072816,14.335216 1.14781552,14.138028 L7.28628353,7.98562237 L1.14781552,1.86197198 C0.95072816,1.66478396 0.95072816,1.34507902 1.14781552,1.14789101 C1.34490288,0.950702996 1.66444463,0.950702996 1.86153199,1.14789101" id="Path"></path>
        </g>
    </g>
</svg>