<?xml version="1.0" encoding="UTF-8"?>
<svg width="16px" height="16px" viewBox="0 0 16 16" version="1.1" xmlns="http://www.w3.org/2000/svg" xmlns:xlink="http://www.w3.org/1999/xlink">
    <title>Ui/Icon/decending</title>
    <g id="Ui/Icon/decending" stroke="none" stroke-width="1" fill="none" fill-rule="evenodd">
        <g id="decending" fill="#415971" fill-rule="nonzero">
            <rect id="Rectangle" opacity="0" x="0" y="0" width="16" height="16"></rect>
            <path d="M3.44515473,1.46905971 C3.47089656,1.21959 3.71143999,1.02272263 3.95699674,1.00184605 C4.23927321,0.977847672 4.42638005,1.19077233 4.45072244,1.46905971 L4.45072244,13.5433718 L6.25823707,11.7614007 C6.42730078,11.5947262 6.70140722,11.5947262 6.87047094,11.7614007 C7.04338372,11.9356046 7.04186563,12.2092159 6.87039726,12.3782611 L4.32256202,14.8900907 C4.16273045,15.047987 3.90488818,15.047987 3.74424439,14.8900907 L1.12350401,12.3333816 C0.960777499,12.1746309 0.958571892,11.9161438 1.1185664,11.7547167 C1.27642861,11.595441 1.53537053,11.5924866 1.69692937,11.7481179 L3.44515473,13.4715994 L3.44515473,1.46905971 Z M10.4995777,9.00851292 L7.49957772,9.00851292 C7.22343535,9.00851292 6.99957772,8.7846553 6.99957772,8.50851292 C6.99957772,8.23237055 7.22343535,8.00851292 7.49957772,8.00851292 L10.4995777,8.00851292 C10.7757201,8.00851292 10.9995777,8.23237055 10.9995777,8.50851292 C10.9995777,8.7846553 10.7757201,9.00851292 10.4995777,9.00851292 Z M14.4995777,3.00851292 L7.49957772,3.00851292 C7.22343535,3.00851292 6.99957772,2.7846553 6.99957772,2.50851292 C6.99957772,2.23237055 7.22343535,2.00851292 7.49957772,2.00851292 L14.4995777,2.00851292 C14.7757201,2.00851292 14.9995777,2.23237055 14.9995777,2.50851292 C14.9995777,2.7846553 14.7757201,3.00851292 14.4995777,3.00851292 Z M12.5156103,6.00851292 L7.51561029,6.00851292 C7.23946792,6.00851292 7.01561029,5.7846553 7.01561029,5.50851292 C7.01561029,5.23237055 7.23946792,5.00851292 7.51561029,5.00851292 L12.5156103,5.00851292 C12.7917527,5.00851292 13.0156103,5.23237055 13.0156103,5.50851292 C13.0156103,5.7846553 12.7917527,6.00851292 12.5156103,6.00851292 Z" id="Shape"></path>
        </g>
    </g>
</svg>