<?xml version="1.0" encoding="UTF-8"?>
<svg width="16px" height="16px" viewBox="0 0 16 16" version="1.1" xmlns="http://www.w3.org/2000/svg" xmlns:xlink="http://www.w3.org/1999/xlink">
    <title>Ui/Icon/download</title>
    <g id="Ui/Icon/download" stroke="none" stroke-width="1" fill="none" fill-rule="evenodd">
        <g id="download" fill="#415971" fill-rule="nonzero">
            <rect id="Rectangle" opacity="0" x="0" y="0" width="16" height="16"></rect>
            <g id="download-a-link" transform="translate(2.000000, 1.000000)">
                <path d="M13,13.5 C13,13.7765946 12.8423454,14 12.6471601,14 L0.38049316,14 C0.1860555,14 0.02765329,13.7765919 0.02765329,13.5 C0.02765329,13.2234081 0.18530789,13 0.38049316,13 L12.6471601,13 C12.8423473,13.0010649 13,13.224473 13,13.5 Z M6.88504354,11.6974283 C6.80364516,11.8118493 6.67270823,11.8767411 6.5259911,11.8609503 C6.39507608,11.8609899 6.28131619,11.8120947 6.18347269,11.7142512 L1.58084522,7.11039874 C1.40167421,6.93122772 1.40177345,6.63759797 1.58106563,6.45830579 C1.76035781,6.27901361 2.10972217,6.22317976 2.28889318,6.40235078 L6.02731693,10.2049055 L6,0.46964312 C5.99942233,0.33935473 6.09527717,0.21178603 6.17665969,0.13040351 C6.2580422,0.049021 6.37183988,0 6.5027502,0 C6.76396771,0.00053342 7.00008808,0.23347475 7,0.49407076 L7.02731693,10.2049055 L10.7726209,6.40390448 C10.951913,6.2246123 11.2966435,6.27561379 11.4758145,6.45478481 C11.6549856,6.63395583 11.6548863,6.92758558 11.4755941,7.10687776 L6.88504354,11.6974283 Z" id="download-a"></path>
            </g>
        </g>
    </g>
</svg>