<?xml version="1.0" encoding="UTF-8"?>
<svg width="16px" height="16px" viewBox="0 0 16 16" version="1.1" xmlns="http://www.w3.org/2000/svg" xmlns:xlink="http://www.w3.org/1999/xlink">
    <title>Ui/Icon/edit</title>
    <g id="Ui/Icon/edit" stroke="none" stroke-width="1" fill="none" fill-rule="evenodd">
        <g id="edit" fill="#415971" fill-rule="nonzero">
            <rect id="Rectangle" opacity="0" x="0" y="0" width="16" height="16"></rect>
            <path d="M13.5,14 L2.5,14 C2.22385763,14 2,13.7761424 2,13.5 L2,2.5 C2,2.22385763 2.22385763,2 2.5,2 L8.5,2 C8.77614237,2 9,1.77614237 9,1.5 L9,1.5 C9,1.22385763 8.77614237,1 8.5,1 L2,1 C1.44771525,1 1,1.44771525 1,2 L1,14 C1,14.5522847 1.44771525,15 2,15 L14,14.9991725 C14.5519617,14.9991725 14.9995431,14.5519612 15,14 L15.0062014,7.50330858 C15.0064309,7.22556876 14.7814645,7.00022991 14.5037247,7 C14.5035861,7 14.5034474,7 14.5033087,7 L14.5033087,7 C14.225339,7 14,7.225339 14,7.50330875 L14,13.5 C14,13.7761424 13.7761424,14 13.5,14 Z" id="Path"></path>
            <path d="M12.2284887,1.53344042 C12.8611285,0.896309072 13.8586268,0.791539059 14.4904861,1.42872737 C14.8071585,1.74690379 14.9809577,2.1696833 14.9809577,2.62064052 C14.9809577,3.07085722 14.7062822,3.39292913 14.3903488,3.71112454 L14.3903488,3.71112454 L8.77941087,9.36223557 C8.72639522,9.4156384 8.65937956,9.45420806 8.58573717,9.47274952 L8.58573717,9.47274952 L6.30375935,9.97469983 C6.26854323,9.98244607 6.2320682,9.98248272 6.19683659,9.97480727 C6.06192974,9.94541691 5.97639173,9.81222769 6.00578209,9.67732084 L6.00578209,9.67732084 L6.50594146,7.38150318 C6.52361586,7.30808165 6.56379047,7.2386967 6.6175508,7.18455145 L6.6175508,7.18455145 Z M12.0146536,2.84559571 L7.14510801,7.74195135 L6.79327921,9.18091928 L8.22701308,8.82981301 L13.0955859,3.93443554 L12.0146536,2.84559571 Z M13.8990847,2.02423773 C13.4491082,1.57178386 13.0896376,1.76368217 12.7737042,2.08187758 L12.7737042,2.08187758 L12.5556062,2.30166488 L13.6365384,3.39050471 L13.8546365,3.17071742 C14.1650105,2.85912307 14.3490612,2.4766916 13.8990847,2.02423773 Z" id="Combined-Shape" stroke="#415971" stroke-width="0.4"></path>
        </g>
    </g>
</svg>