<?xml version="1.0" encoding="UTF-8"?>
<svg width="16px" height="16px" viewBox="0 0 16 16" version="1.1" xmlns="http://www.w3.org/2000/svg" xmlns:xlink="http://www.w3.org/1999/xlink">
    <title>Ui/Icon/notification</title>
    <g id="Ui/Icon/notification" stroke="none" stroke-width="1" fill="none" fill-rule="evenodd">
        <g id="notification" fill="#415971" fill-rule="nonzero">
            <rect id="Rectangle" opacity="0" x="0" y="0" width="16" height="16"></rect>
            <path d="M5,12 L11,12 L11,7 C11,5.34314575 9.65685425,4 8,4 C6.34314575,4 5,5.34314575 5,7 L5,12 Z M7,3.12601749 C7.31961992,3.043753 7.65470043,3 8,3 C8.34529957,3 8.68038008,3.043753 9,3.12601749 L9,3 C9,2.44771525 8.55228475,2 8,2 C7.44771525,2 7,2.44771525 7,3 L7,3.12601749 Z M12,12 L13.4932127,12 C13.7731036,12 14,12.2268964 14,12.5067873 C14,12.7866782 13.7731036,13.0135747 13.4932127,13.0135747 L9.9999549,13.0135747 C9.99265447,14.1118965 9.10004108,15 8,15 C6.89995892,15 6.00734553,14.1118965 6.0000451,13.0135747 L2.50678733,13.0135747 C2.22689642,13.0135747 2,12.7866782 2,12.5067873 C2,12.2268964 2.22689642,12 2.50678733,12 L4,12 L4,7 C4,5.51943529 4.80439726,4.22674762 6,3.53512878 L6,3 C6,1.8954305 6.8954305,1 8,1 C9.1045695,1 10,1.8954305 10,3 L10,3.53512878 C11.1956027,4.22674762 12,5.51943529 12,7 L12,12 Z M7.00009025,13.0135747 C7.00735485,13.5596024 7.45224724,14 8,14 C8.54775276,14 8.99264515,13.5596024 8.99990975,13.0135747 L7.00009025,13.0135747 Z" id="Shape"></path>
        </g>
    </g>
</svg>