<?xml version="1.0" encoding="UTF-8"?>
<svg width="24px" height="24px" viewBox="0 0 24 24" version="1.1" xmlns="http://www.w3.org/2000/svg" xmlns:xlink="http://www.w3.org/1999/xlink">
    <title>Ui/Icon/Overview</title>
    <g id="Pulse" stroke="none" stroke-width="1" fill="none" fill-rule="evenodd">
        <g id="01_01_Overview" transform="translate(-33.000000, -114.000000)" fill-rule="nonzero">
            <g id="Ui/Icon/Overview" transform="translate(33.000000, 114.000000)">
                <g id="view" fill="#D8D8D8" opacity="0">
                    <rect id="Rectangle" x="0" y="0" width="24" height="24"></rect>
                </g>
                <g id="Group" transform="translate(1.000000, 1.000000)" fill="#0E4C7A">
                    <path d="M10.5454545,2.15909091 C10.9596681,2.15909091 11.2954545,2.49487735 11.2954545,2.90909091 C11.2954545,3.32330447 10.9596681,3.65909091 10.5454545,3.65909091 C5.68785913,3.65909091 1.75,7.59695004 1.75,12.4545455 C1.75,17.3121409 5.68785913,21.25 10.5454545,21.25 C15.40305,21.25 19.3409091,17.3121409 19.3409091,12.4545455 C19.3409091,12.0403319 19.6766955,11.7045455 20.0909091,11.7045455 C20.5051227,11.7045455 20.8409091,12.0403319 20.8409091,12.4545455 C20.8409091,18.140568 16.2314771,22.75 10.5454545,22.75 C4.85943201,22.75 0.25,18.140568 0.25,12.4545455 C0.25,6.76852292 4.85943201,2.15909091 10.5454545,2.15909091 Z" id="Path"></path>
                    <path d="M9.79545455,0.25 L9.79545455,13.2045455 L22.7620014,13.2045455 L22.7440201,12.0719235 C22.5347414,5.48689375 17.1387624,0.25 10.5454545,0.25 L9.79545455,0.25 Z M11.2945,1.7755 L11.6165755,1.80299338 C16.6672068,2.30538231 20.6997532,6.32239228 21.1981408,11.3934769 L21.223,11.704 L11.2945,11.704 L11.2945,1.7755 Z" id="Combined-Shape"></path>
                </g>
            </g>
        </g>
    </g>
</svg>