<?xml version="1.0" encoding="UTF-8"?>
<svg width="16px" height="16px" viewBox="0 0 16 16" version="1.1" xmlns="http://www.w3.org/2000/svg" xmlns:xlink="http://www.w3.org/1999/xlink">
    <title>Ui/Icon/preference</title>
    <g id="Ui/Icon/preference" stroke="none" stroke-width="1" fill="none" fill-rule="evenodd">
        <g id="preference" fill="#415971" fill-rule="nonzero">
            <rect id="Rectangle" opacity="0" x="0" y="0" width="16" height="16"></rect>
            <path d="M3.5,4.97185724 C2.3954305,4.97185724 1.5,4.07642674 1.5,2.97185724 C1.5,1.86728774 2.3954305,0.971857244 3.5,0.971857244 C4.6045695,0.971857244 5.5,1.86728774 5.5,2.97185724 C5.5,4.07642674 4.6045695,4.97185724 3.5,4.97185724 Z M3.5,3.97185724 C4.05228475,3.97185724 4.5,3.52414199 4.5,2.97185724 C4.5,2.41957249 4.05228475,1.97185724 3.5,1.97185724 C2.94771525,1.97185724 2.5,2.41957249 2.5,2.97185724 C2.5,3.52414199 2.94771525,3.97185724 3.5,3.97185724 Z M8,12.5 C6.8954305,12.5 6,11.6045695 6,10.5 C6,9.3954305 6.8954305,8.5 8,8.5 C9.1045695,8.5 10,9.3954305 10,10.5 C10,11.6045695 9.1045695,12.5 8,12.5 Z M8,11.5 C8.55228475,11.5 9,11.0522847 9,10.5 C9,9.94771525 8.55228475,9.5 8,9.5 C7.44771525,9.5 7,9.94771525 7,10.5 C7,11.0522847 7.44771525,11.5 8,11.5 Z M12,8.43699126 C11.1373864,8.21496986 10.5,7.43191971 10.5,6.5 C10.5,5.56808029 11.1373864,4.78503014 12,4.56300874 L12,1.5 C12,1.22385763 12.2238576,1 12.5,1 C12.7761424,1 13,1.22385763 13,1.5 L13,4.56300874 C13.8626136,4.78503014 14.5,5.56808029 14.5,6.5 C14.5,7.43191971 13.8626136,8.21496986 13,8.43699126 L13,14.5 C13,14.7761424 12.7761424,15 12.5,15 C12.2238576,15 12,14.7761424 12,14.5 L12,8.43699126 Z M12.5,7.5 C13.0522847,7.5 13.5,7.05228475 13.5,6.5 C13.5,5.94771525 13.0522847,5.5 12.5,5.5 C11.9477153,5.5 11.5,5.94771525 11.5,6.5 C11.5,7.05228475 11.9477153,7.5 12.5,7.5 Z M7.5,9.5 L7.5,1.47185724 C7.5,1.19571487 7.72385763,0.971857244 8,0.971857244 C8.27614237,0.971857244 8.5,1.19571487 8.5,1.47185724 L8.5,9.5 L7.5,9.5 Z M7.5,12 L8.5,12 L8.5,14.5 C8.5,14.7761424 8.27614237,15 8,15 C7.72385763,15 7.5,14.7761424 7.5,14.5 L7.5,12 Z M3,4.46963778 L4,4.46963778 L4,14.5 C4,14.7761424 3.77614237,15 3.5,15 C3.22385763,15 3,14.7761424 3,14.5 L3,4.46963778 Z" id="Shape"></path>
        </g>
    </g>
</svg>