<?xml version="1.0" encoding="UTF-8"?>
<svg width="16px" height="16px" viewBox="0 0 16 16" version="1.1" xmlns="http://www.w3.org/2000/svg" xmlns:xlink="http://www.w3.org/1999/xlink">
    <title>Ui/Icon/refresh</title>
    <g id="Ui/Icon/refresh" stroke="none" stroke-width="1" fill="none" fill-rule="evenodd">
        <g id="refresh" fill="#415971" fill-rule="nonzero">
            <rect id="Rectangle" opacity="0" x="0" y="0" width="16" height="16"></rect>
            <g id="refresh-a-link" transform="translate(1.000000, 0.000000)">
                <path d="M8.52640104,13.8616097 L10.2397913,14.850836 C10.4910993,14.9959286 10.622507,15.2388071 10.4774144,15.4901151 C10.3323216,15.741423 10.0109755,15.8275274 9.75966752,15.6824347 L7.02946818,14.1061534 C6.77816027,13.9610607 6.69205581,13.6397145 6.83714851,13.3884066 L8.41342985,10.6582072 C8.55852254,10.4068993 8.87986871,10.3207949 9.13117663,10.4658876 C9.38248453,10.6109802 9.3901213,10.8870231 9.24502864,11.138331 L8.33852407,12.7084429 C10.4292785,12.2461545 11.9931502,10.3816157 11.9931502,8.15181502 C11.9931502,6.6962837 11.3208781,5.36404087 10.2291534,4.49648392 C10.1499131,4.43351422 10.0468373,4.36118811 9.9199191,4.27951679 C9.62582728,4.09023344 9.47905327,3.73909424 9.5509596,3.39682592 C9.56025863,3.35256369 9.57607012,3.30992517 9.59787827,3.27030172 C9.7197002,3.04896269 9.99788708,2.9682881 10.2192261,3.09010998 L10.2192392,3.09008622 C10.3218558,3.14656498 10.4080111,3.19721635 10.4777049,3.24204033 C12.0911276,4.27972243 13.1598168,6.09096586 13.1598168,8.15181502 C13.1598168,10.9621728 11.1724308,13.3083517 8.52640104,13.8616097 Z M5.45008246,2.35797338 L3.73669217,1.36874704 C3.48538426,1.22365436 3.35397648,0.980775845 3.49906918,0.729467923 C3.64416186,0.478160013 3.96550804,0.392055568 4.21681595,0.537148255 L6.94701532,2.11342959 C7.19832323,2.25852229 7.28442769,2.57986847 7.13933499,2.83117638 L5.56305365,5.56137575 C5.41796096,5.81268366 5.09661478,5.89878811 4.84530687,5.75369542 C4.59399896,5.60860273 4.58636218,5.33255988 4.73145486,5.08125197 L5.63795943,3.51114002 C3.54720498,3.9734284 1.98333339,5.8379673 1.98333339,8.06776797 C1.98333339,9.5232993 2.65560541,10.8555421 3.74733004,11.723099 C3.82657045,11.7860688 3.92964619,11.8583949 4.05656445,11.9400663 C4.35065618,12.1293495 4.49743023,12.4804888 4.42552387,12.822757 C4.41622491,12.8670193 4.40041337,12.9096578 4.37860519,12.9492812 C4.2567833,13.1706203 3.97859642,13.2512949 3.75725739,13.129473 L3.75724431,13.1294968 C3.65462764,13.073018 3.5684724,13.0223667 3.49877858,12.9775427 C1.88535589,11.9398606 0.816666725,10.1286171 0.816666725,8.06776797 C0.816666725,5.25741018 2.8040527,2.91123125 5.45008246,2.35797338 Z" id="refresh-a"></path>
            </g>
        </g>
    </g>
</svg>