<?xml version="1.0" encoding="UTF-8"?>
<svg width="16px" height="16px" viewBox="0 0 16 16" version="1.1" xmlns="http://www.w3.org/2000/svg" xmlns:xlink="http://www.w3.org/1999/xlink">
    <title>Ui/Icon/search</title>
    <g id="Ui/Icon/search" stroke="none" stroke-width="1" fill="none" fill-rule="evenodd">
        <g id="search" fill="#415971" fill-rule="nonzero">
            <rect id="Rectangle" opacity="0" x="0" y="0" width="16" height="16"></rect>
            <path d="M10.2852742,11.0092569 C9.30309812,11.8225365 8.04015946,12.2123339 6.66072232,12.2123339 C3.53499275,12.2123339 1,9.78647649 1,6.66073817 C1,3.53499985 3.53499275,1 6.66072232,1 C9.78645188,1 12.2123339,3.53499985 12.2123339,6.66073817 C12.2123339,8.04184214 11.8215675,9.3061279 11.0062858,10.2888481 L14.8501482,14.1116786 C15.049178,14.3096194 15.0500608,14.6314277 14.85212,14.8304575 C14.8517923,14.830787 14.8514641,14.8311161 14.8511354,14.8314447 C14.6519451,15.0306351 14.3291299,15.0310761 14.1293961,14.8324307 L10.2852741,11.0092568 L10.2852742,11.0092569 Z M6.60616697,11.1930308 C9.1399888,11.1930308 11.1930308,9.1399888 11.1930308,6.60616697 C11.1930308,4.07234513 9.1399888,2.01930308 6.60616697,2.01930308 C4.07234513,2.01930308 2.01930308,4.07234513 2.01930308,6.60616697 C2.01930308,9.1399888 4.07234513,11.1930308 6.60616697,11.1930308 Z" id="Shape"></path>
        </g>
    </g>
</svg>