<?xml version="1.0" encoding="UTF-8"?>
<svg width="16px" height="16px" viewBox="0 0 16 16" version="1.1" xmlns="http://www.w3.org/2000/svg" xmlns:xlink="http://www.w3.org/1999/xlink">
    <title>Ui/Icon/settings</title>
    <g id="Ui/Icon/settings" stroke="none" stroke-width="1" fill="none" fill-rule="evenodd">
        <g id="settings" fill-rule="nonzero">
            <rect id="Rectangle" fill="#D8D8D8" opacity="0" x="0" y="0" width="16" height="16"></rect>
            <path d="M6.98640854,0.999999997 C6.75120933,1.00064332 6.54836332,1.16576576 6.49919498,1.39659584 L6.30465011,2.32418286 C5.92215873,2.42999776 5.54477575,2.57165319 5.17803527,2.7600293 L4.38325352,2.26167528 C4.18530305,2.13815345 3.92924455,2.1682339 3.76535008,2.33399634 L2.33116704,3.7716709 C2.16663402,3.93743335 2.13832498,4.19493049 2.26305506,4.39248007 L2.78091901,5.20913213 C2.5980809,5.54833714 2.44759597,5.90823578 2.33116704,6.2866947 L1.38419757,6.51155136 C1.15878946,6.56488548 0.999151989,6.76755514 1,6.99987857 L1,9.00012143 C1,9.23159152 1.15878946,9.43340783 1.38419757,9.48674195 L2.33116704,9.7109586 C2.44759597,10.0900575 2.5980809,10.4491028 2.78091901,10.7891612 L2.26305506,11.6058132 C2.13832498,11.8016561 2.16493123,12.0582999 2.3271229,12.2242757 L3.73044269,13.6617369 C3.89518856,13.8317661 4.15614261,13.8618465 4.35579587,13.7342713 L5.17633247,13.2109569 C5.53732601,13.4033864 5.91385759,13.5550687 6.30294731,13.6683504 L6.49919498,14.6016975 C6.54751192,14.8333809 6.75035793,14.9993567 6.98640854,15 L8.98187692,15 C9.21728898,15.00085 9.42183779,14.8367943 9.47164468,14.6059642 L9.66618955,13.7009908 C10.0678374,13.5874958 10.4560758,13.4351736 10.8251576,13.2399707 L11.6184494,13.7368314 C11.8138457,13.8584332 12.0664986,13.8309128 12.230393,13.6700571 L13.6339257,12.2951034 C13.8001615,12.132541 13.8316633,11.8767506 13.7120416,11.6774943 L13.2148241,10.8559355 C13.4044734,10.5017969 13.5558097,10.1308048 13.6705359,9.74829248 L14.6040958,9.55095623 C14.8343994,9.50167551 14.9991453,9.29836584 15,9.06241569 L15,6.99987857 C15.0008481,6.76414175 14.8361022,6.55912539 14.6057986,6.510058 L13.7054433,6.31421511 C13.5915685,5.91996929 13.437678,5.54087036 13.2456873,5.17990503 L13.7386478,4.38821334 C13.8608237,4.1915171 13.8316633,3.93572666 13.6688331,3.7716709 L12.23465,2.33399634 C12.0707556,2.16908724 11.8155485,2.1390068 11.6184494,2.26167528 L10.8277118,2.75746926 C10.4677825,2.56653311 10.0901867,2.41314418 9.69705279,2.29900916 L9.50250793,1.3940358 C9.45248819,1.16320572 9.24879077,0.999149968 9.01359157,0.999999997 L6.98640854,0.999999997 Z M7.39253165,2 L8.61172382,2 L8.77555942,2.7616 C8.81619916,2.94997333 8.96173623,3.09824 9.14940246,3.1424 C9.68218731,3.26826667 10.1817795,3.46410667 10.6222206,3.73674667 C10.783503,3.83658667 10.9871272,3.83658667 11.1484095,3.73674667 L11.8082201,3.32245333 L12.6810171,4.19754667 L12.2680237,4.85909333 C12.1673818,5.01994667 12.1665307,5.22496 12.2663215,5.38666667 C12.5371822,5.82741333 12.7350615,6.32917333 12.8605979,6.86336 C12.904642,7.05173333 13.0516685,7.19744 13.2403986,7.2384 L14,7.40245333 L14,8.65578667 L13.2129508,8.8224 C13.0259229,8.86165333 12.8771942,9.00501333 12.8305968,9.19168 C12.7001667,9.71989333 12.508245,10.2084267 12.2388737,10.6382933 C12.1373808,10.7982933 12.1358913,11.0016 12.2331288,11.16416 L12.6518671,11.8557867 L11.8124756,12.6801067 L11.1484095,12.26176 C10.9871272,12.1617067 10.783503,12.1617067 10.6222206,12.26176 C10.177524,12.5367467 9.66644207,12.7300267 9.12046526,12.8558933 C8.93173517,12.8992 8.785347,13.0474667 8.74385617,13.2366933 L8.58023334,14 L7.39253165,14 L7.22699387,13.2091733 C7.18720522,13.0208 7.04337033,12.87168 6.85634242,12.8258133 C6.31525941,12.6941867 5.81566722,12.50496 5.38182205,12.2325333 C5.21990141,12.12992 5.0128728,12.12992 4.84988829,12.2325333 L4.16262988,12.67008 L3.31898294,11.80672 L3.76112628,11.10912 C3.86347034,10.9482667 3.86581084,10.7432533 3.76687117,10.5800533 C3.50026597,10.1408 3.29238625,9.66336 3.17110536,9.16010667 C3.12706124,8.97664 2.98407745,8.83413333 2.80109224,8.79082667 L2,8.6016 L2,7.39242667 L2.80109224,7.20341333 C2.98407745,7.15989333 3.12706124,7.01674667 3.17110536,6.83413333 C3.29238625,6.33002667 3.49941487,5.85344 3.76687117,5.41418667 C3.86581084,5.25077333 3.86347034,5.04576 3.76112628,4.88490667 L3.32323841,4.19157333 L4.19177985,3.31989333 L4.85414376,3.73418667 C5.01542608,3.83509333 5.22075251,3.83509333 5.38182205,3.73418667 C5.79907089,3.47328 6.30611015,3.30325333 6.85634242,3.16992 C7.04337033,3.12426667 7.18720522,2.97578667 7.22699387,2.78656 L7.39253165,2 Z M8,11 C9.65685425,11 11,9.65685425 11,8 C11,6.34314575 9.65685425,5 8,5 C6.34314575,5 5,6.34314575 5,8 C5,9.65685425 6.34314575,11 8,11 Z M8,6 C9.10997333,6 10,6.89040657 10,8.0008537 C10,9.11130082 9.10997333,10 8,10 C6.88917333,10 6,9.11130082 6,8.0008537 C6,6.89040657 6.88917333,6 8,6 Z" id="Shape" fill="#415971"></path>
        </g>
    </g>
</svg>