<?xml version="1.0" encoding="UTF-8"?>
<svg width="16px" height="16px" viewBox="0 0 16 16" version="1.1" xmlns="http://www.w3.org/2000/svg" xmlns:xlink="http://www.w3.org/1999/xlink">
    <title>Ui/Icon/support</title>
    <g id="Ui/Icon/support" stroke="none" stroke-width="1" fill="none" fill-rule="evenodd">
        <g id="support" fill="#415971" fill-rule="nonzero">
            <rect id="Rectangle" opacity="0" x="0" y="0" width="16" height="16"></rect>
            <path d="M8,14 C11.3137085,14 14,11.3137085 14,8 C14,4.6862915 11.3137085,2 8,2 C4.6862915,2 2,4.6862915 2,8 C2,11.3137085 4.6862915,14 8,14 Z M8,15 C4.13400675,15 1,11.8659932 1,8 C1,4.13400675 4.13400675,1 8,1 C11.8659932,1 15,4.13400675 15,8 C15,11.8659932 11.8659932,15 8,15 Z M8,11 C9.65685425,11 11,9.65685425 11,8 C11,6.34314575 9.65685425,5 8,5 C6.34314575,5 5,6.34314575 5,8 C5,9.65685425 6.34314575,11 8,11 Z M10.4528219,11.1599287 C9.77548007,11.6864592 8.92435573,12 8,12 C7.06245333,12 6.20024303,11.6774466 5.51828667,11.1372574 L3.85891204,12.8481123 L3.14108796,12.1518877 L4.81748244,10.423485 C4.30458553,9.75097923 4,8.91105949 4,8 C4,7.07564427 4.3135408,6.22451993 4.84007129,5.54717807 L3.14644661,3.85355339 L3.85355339,3.14644661 L5.54717807,4.84007129 C6.22451993,4.3135408 7.07564427,4 8,4 C8.92127391,4 9.76980393,4.31145359 10.4460413,4.83481201 L12.1428632,3.0705743 L12.8636065,3.76377629 L11.1547484,5.54052846 C11.684402,6.21894557 12,7.07261686 12,8 C12,8.92435573 11.6864592,9.77548007 11.1599287,10.4528219 L12.8535534,12.1464466 L12.1464466,12.8535534 L10.4528219,11.1599287 Z" id="Shape"></path>
        </g>
    </g>
</svg>