<?xml version="1.0" encoding="UTF-8"?>
<svg width="14px" height="29px" viewBox="0 0 14 29" version="1.1" xmlns="http://www.w3.org/2000/svg" xmlns:xlink="http://www.w3.org/1999/xlink">
    <title>icons/newage/black/write_using_connector</title>
    <g id="Symbols" stroke="none" stroke-width="1" fill="none" fill-rule="evenodd">
        <g id="Icons/New-age/Black/write_using_connector" fill-rule="nonzero">
            <g id="icons/newage/black/write_using_connector">
                <g id="connectors">
                    <g id="connect" transform="translate(1.000000, 3.000000)" fill="#031A34">
                        <rect id="Rectangle-4" x="1" y="3.5" width="8" height="1"></rect>
                        <path d="M8.6992194,4.474342 L7.6992194,4.474342 C7.6992194,2.25520203 8.84045904,0.733549177 11.0411055,3.5e-07 L11.3573332,0.948683648 C9.55797976,1.54846815 8.6992194,2.69348197 8.6992194,4.474342 Z" id="Path_2" transform="translate(9.528276, 2.237171) rotate(180.000000) translate(-9.528276, -2.237171) "></path>
                        <path d="M1.69921875,4.474342 L0.69921875,4.474342 C0.69921875,2.25520203 1.84045839,0.733549177 4.04110487,3.5e-07 L4.35733263,0.948683648 C2.55797911,1.54846815 1.69921875,2.69348197 1.69921875,4.474342 Z" id="Path_2" transform="translate(2.528276, 2.237171) scale(-1, 1) rotate(-180.000000) translate(-2.528276, -2.237171) "></path>
                        <rect id="line" x="8" y="3.5" width="3" height="1"></rect>
                    </g>
                    <g id="Group-2" transform="translate(0.000000, 6.000000)">
                        <path d="M12.5,0 L13.5,0 C13.7761424,0 14,0.223857625 14,0.5 L14,1.5 C14,1.77614237 13.7761424,2 13.5,2 L12.5,2 C12.2238576,2 12,1.77614237 12,1.5 L12,0.5 C12,0.223857625 12.2238576,0 12.5,0 Z" id="Rectangle_fill_1" fill="#031A34"></path>
                        <path d="M0.5,0 L1.5,0 C1.77614237,0 2,0.223857625 2,0.5 L2,1.5 C2,1.77614237 1.77614237,2 1.5,2 L0.5,2 C0.223857625,2 0,1.77614237 0,1.5 L0,0.5 C0,0.223857625 0.223857625,0 0.5,0 Z" id="Rectangle_fill_2" fill="#031A34"></path>
                        <path d="M6.5,0 L7.5,0 C7.77614237,0 8,0.223857625 8,0.5 L8,1.5 C8,1.77614237 7.77614237,2 7.5,2 L6.5,2 C6.22385763,2 6,1.77614237 6,1.5 L6,0.5 C6,0.223857625 6.22385763,0 6.5,0 Z" id="Rectangle_fill_2" fill="#FF555F"></path>
                    </g>
                    <g id="Group" fill="#FF555F">
                        <path d="M11,1.5 L11,2.5 C11,2.77614237 11.2238576,3 11.5,3 L12.5,3 C12.7761424,3 13,2.77614237 13,2.5 L13,1.5 C13,1.22385763 12.7761424,1 12.5,1 L11.5,1 C11.2238576,1 11,1.22385763 11,1.5 Z M11,0 L13,0 C13.5522847,0 14,0.44771525 14,1 L14,3 C14,3.55228475 13.5522847,4 13,4 L11,4 C10.4477153,4 10,3.55228475 10,3 L10,1 C10,0.44771525 10.4477153,0 11,0 Z" id="Rectangle_2"></path>
                        <path d="M1,1.5 L1,2.5 C1,2.77614237 1.22385763,3 1.5,3 L2.5,3 C2.77614237,3 3,2.77614237 3,2.5 L3,1.5 C3,1.22385763 2.77614237,1 2.5,1 L1.5,1 C1.22385763,1 1,1.22385763 1,1.5 Z M1,0 L3,0 C3.55228475,0 4,0.44771525 4,1 L4,3 C4,3.55228475 3.55228475,4 3,4 L1,4 C0.44771525,4 0,3.55228475 0,3 L0,1 C0,0.44771525 0.44771525,0 1,0 Z" id="Rectangle_2"></path>
                    </g>
                </g>
                <g id="pen" transform="translate(1.000000, 8.000000)">
                    <path d="M3,13.8500004 L3,19.5 C3,19.7761424 2.77614237,20 2.5,20 L2.5,20 C2.22385763,20 2,19.7761424 2,19.5 L2,14.376172 C2,14.1491005 1.92271925,13.92879 1.78086881,13.7514769 L0.305575942,11.9073608 C0.0658734047,11.6077327 0.0187561879,11.1973694 0.18431053,10.8512103 L5.09786578,0.577412955 C5.33615207,0.0791779825 5.93322052,-0.13155206 6.4314555,0.106734231 C6.63749421,0.205274484 6.80359397,0.371374244 6.90213422,0.577412955 L11.8156895,10.8512103 C11.9812438,11.1973694 11.9341266,11.6077327 11.6944241,11.9073608 L10.2191312,13.7514769 C10.0772808,13.92879 10,14.1491005 10,14.376172 L10,19.5 C10,19.7761424 9.77614237,20 9.5,20 L9.5,20 C9.22385763,20 9,19.7761424 9,19.5 L9,13.8500004 C9,13.7364646 9.03864038,13.6263094 9.1095656,13.5376529 L10.7175449,11.5276787 C10.8373962,11.3778646 10.8609548,11.172683 10.7781776,10.9996035 L6.45106711,1.95200878 C6.33192397,1.70289129 6.03338974,1.59752627 5.78427225,1.71666941 C5.6812529,1.76593954 5.59820302,1.84898942 5.54893289,1.95200878 L1.22182239,10.9996035 C1.13904522,11.172683 1.16260383,11.3778646 1.2824551,11.5276787 L2.8904344,13.5376529 C2.96135962,13.6263094 3,13.7364646 3,13.8500004 Z" id="Path-15" fill="#031A34"></path>
                    <path d="M2.5,20 C2.22385763,20 2,19.7761424 2,19.5 C2,19.2238576 2.22385763,19 2.5,19 L9.5,19 C9.77614237,19 10,19.2238576 10,19.5 C10,19.7761424 9.77614237,20 9.5,20 L2.5,20 Z" id="Path-18" fill="#031A34"></path>
                    <polygon id="Path-18" fill="#031A34" points="2.5 16.8500004 2.5 15.8500004 9.5 15.8500004 9.5 16.8500004"></polygon>
                    <polygon id="Path-18" fill="#031A34" points="6.5 9.35000038 5.5 9.35000038 5.5 1.03999996 6.5 1.03999996"></polygon>
                    <path d="M6,11.3500004 C5.17157288,11.3500004 4.5,10.6784275 4.5,9.85000038 C4.5,9.02157326 5.17157288,8.35000038 6,8.35000038 C6.82842712,8.35000038 7.5,9.02157326 7.5,9.85000038 C7.5,10.6784275 6.82842712,11.3500004 6,11.3500004 Z M6,10.3500004 C6.27614237,10.3500004 6.5,10.1261428 6.5,9.85000038 C6.5,9.57385801 6.27614237,9.35000038 6,9.35000038 C5.72385763,9.35000038 5.5,9.57385801 5.5,9.85000038 C5.5,10.1261428 5.72385763,10.3500004 6,10.3500004 Z" id="Oval" fill="#FF555F"></path>
                </g>
            </g>
        </g>
    </g>
</svg>