<?xml version="1.0" encoding="UTF-8"?>
<svg width="26px" height="26px" viewBox="0 0 26 26" version="1.1" xmlns="http://www.w3.org/2000/svg" xmlns:xlink="http://www.w3.org/1999/xlink">
    <title>Group 33 Copy</title>
    <g id="Pulse" stroke="none" stroke-width="1" fill="none" fill-rule="evenodd">
        <g id="01_01_Overview" transform="translate(-32.000000, -241.000000)" fill="#415971" fill-rule="nonzero" stroke="#415971" stroke-width="0.5">
            <g id="Group-33-Copy" transform="translate(33.000000, 242.000000)">
                <path d="M8.57142857,4.28189223 L8.57142857,4.28189223 C8.57142857,4.04730963 8.76159531,3.85714286 8.99617791,3.85714286 L14.1470503,3.85714286 C14.3814279,3.85714286 14.5714286,4.04714347 14.5714286,4.28152111 C14.5714286,4.28164481 14.5714286,4.28176852 14.5714286,4.28189223 L14.5714286,4.28189223 C14.5712232,4.51653489 14.3809502,4.70664159 14.1463074,4.70664159 L8.99617791,4.70664159 C8.76159531,4.70664159 8.57142857,4.51647483 8.57142857,4.28189223 Z" id="Path-16"></path>
                <path d="M13.8749503,4.64481939 C14.1116436,4.64459336 14.3037047,4.836288 14.303931,5.07298136 C14.3041568,5.30967471 14.1124622,5.50173582 13.8757688,5.50196186 L12.1616468,5.50425381 C11.9249535,5.50456984 11.7328192,5.31294857 11.7325024,5.07625531 C11.7325024,5.07606433 11.7325024,5.07587334 11.7325024,5.07568236 L11.7325024,3.36156052 C11.7325024,3.12486705 11.9243804,2.93298909 12.1610738,2.93298909 C12.3977673,2.93298909 12.5896452,3.12486705 12.5896452,3.36156052 L12.5896452,4.64686534 L13.8749503,4.64481939 Z" id="Path-5" transform="translate(13.018217, 4.218621) rotate(-135.000000) translate(-13.018217, -4.218621) "></path>
                <path d="M9.42857143,20.1466791 L9.42857143,20.1466791 C9.42857143,19.9120965 9.61873817,19.7219298 9.85332077,19.7219298 L15.0041931,19.7219298 C15.2385708,19.7219298 15.4285714,19.9119304 15.4285714,20.1463081 C15.4285714,20.1464318 15.4285714,20.1465555 15.4285714,20.1466791 L15.4285714,20.1466791 C15.4283661,20.3813218 15.238093,20.5714286 15.0034503,20.5714286 L9.85332077,20.5714286 C9.61873817,20.5714286 9.42857143,20.3812617 9.42857143,20.1466791 Z" id="Path-16" transform="translate(12.428571, 20.146679) rotate(-180.000000) translate(-12.428571, -20.146679) "></path>
                <path d="M11.6749502,20.6361472 C11.9116435,20.6359211 12.1037047,20.8276157 12.1039309,21.0643091 C12.1041567,21.3010024 11.9124621,21.4930636 11.6757687,21.4932896 L9.96164672,21.4955815 C9.72495349,21.4958976 9.53281918,21.3042763 9.53250238,21.0675831 C9.53250238,21.0673921 9.53250238,21.0672011 9.53250238,21.0670101 L9.53250238,19.3528882 C9.53250238,19.1161948 9.72438032,18.9243168 9.96107381,18.9243168 C10.1977672,18.9243168 10.3896452,19.1161948 10.3896452,19.3528882 L10.3896452,20.6381931 L11.6749502,20.6361472 Z" id="Path-5" transform="translate(10.818217, 20.209949) rotate(45.000000) translate(-10.818217, -20.209949) "></path>
                <path d="M17.1466792,11.5714286 L17.1466792,11.5714286 C17.1466792,11.3368459 17.3368459,11.1466792 17.5714285,11.1466792 L22.7223009,11.1466792 C22.9566786,11.1466792 23.1466792,11.3366798 23.1466792,11.5710575 C23.1466792,11.5711812 23.1466792,11.5713048 23.1466792,11.5714286 L23.1466792,11.5714286 C23.1464738,11.8060712 22.9562008,11.996178 22.721558,11.996178 L17.5714285,11.996178 C17.3368459,11.996178 17.1466792,11.8060111 17.1466792,11.5714286 Z" id="Path-16" transform="translate(20.146679, 11.571429) rotate(90.000000) translate(-20.146679, -11.571429) "></path>
                <path d="M21.0666831,13.4444145 C21.3033764,13.4441885 21.4954375,13.6358832 21.4956637,13.8725765 C21.4958896,14.1092699 21.304195,14.301331 21.0675016,14.301557 L19.3533796,14.303849 C19.1166863,14.304165 18.924552,14.1125438 18.9242352,13.8758504 C18.9242352,13.8756595 18.9242352,13.8754685 18.9242352,13.8752775 L18.9242352,12.1611557 C18.9242352,11.9244622 19.1161132,11.7325843 19.3528067,11.7325843 C19.5895001,11.7325843 19.7813781,11.9244622 19.7813781,12.1611557 L19.7813781,13.4464605 L21.0666831,13.4444145 Z" id="Path-5" transform="translate(20.209949, 13.018217) rotate(-45.000000) translate(-20.209949, -13.018217) "></path>
                <path d="M17.1428571,0.857142857 L17.1428571,6.42857143 C17.1428571,6.66526489 17.3347351,6.85714286 17.5714286,6.85714286 L22.7142857,6.85714286 C22.9509792,6.85714286 23.1428571,6.66526489 23.1428571,6.42857143 L23.1428571,1.28571429 C23.1428571,1.04902083 22.9509792,0.857142857 22.7142857,0.857142857 L17.1428571,0.857142857 Z M17.1428571,2.60236277e-13 L23.1428571,2.60236277e-13 C23.616244,2.60236277e-13 24,0.383755929 24,0.857142857 L24,6.85714286 C24,7.33052979 23.616244,7.71428571 23.1428571,7.71428571 L17.1428571,7.71428571 C16.6694703,7.71428571 16.2857143,7.33052979 16.2857143,6.85714286 L16.2857143,0.857142857 C16.2857143,0.383755929 16.6694703,2.60236277e-13 17.1428571,2.60236277e-13 Z" id="Rectangle-2"></path>
                <path d="M0.857142857,17.1428571 L0.857142857,22.7142857 C0.857142857,22.9509792 1.04902083,23.1428571 1.28571429,23.1428571 L6.42857143,23.1428571 C6.66526489,23.1428571 6.85714286,22.9509792 6.85714286,22.7142857 L6.85714286,17.5714286 C6.85714286,17.3347351 6.66526489,17.1428571 6.42857143,17.1428571 L0.857142857,17.1428571 Z M0.857142857,16.2857143 L6.85714286,16.2857143 C7.33052979,16.2857143 7.71428571,16.6694703 7.71428571,17.1428571 L7.71428571,23.1428571 C7.71428571,23.616244 7.33052979,24 6.85714286,24 L0.857142857,24 C0.383755929,24 2.60236277e-13,23.616244 2.60236277e-13,23.1428571 L2.60236277e-13,17.1428571 C2.60236277e-13,16.6694703 0.383755929,16.2857143 0.857142857,16.2857143 Z" id="Rectangle-2"></path>
                <path d="M3.85714286,7.71428571 C1.72690168,7.71428571 2.60236277e-13,5.98738403 2.60236277e-13,3.85714286 C2.60236277e-13,1.72690168 1.72690168,2.60236277e-13 3.85714286,2.60236277e-13 C5.98738403,2.60236277e-13 7.71428571,1.72690168 7.71428571,3.85714286 C7.71428571,5.98738403 5.98738403,7.71428571 3.85714286,7.71428571 Z M3.85714286,6.85714286 C5.5139971,6.85714286 6.85714286,5.5139971 6.85714286,3.85714286 C6.85714286,2.20028861 5.5139971,0.857142857 3.85714286,0.857142857 C2.20028861,0.857142857 0.857142857,2.20028861 0.857142857,3.85714286 C0.857142857,5.5139971 2.20028861,6.85714286 3.85714286,6.85714286 Z" id="Oval-3"></path>
                <path d="M20.1428571,24 C18.0126159,24 16.2857143,22.2730983 16.2857143,20.1428571 C16.2857143,18.0126159 18.0126159,16.2857143 20.1428571,16.2857143 C22.2730983,16.2857143 24,18.0126159 24,20.1428571 C24,22.2730983 22.2730983,24 20.1428571,24 Z M20.1428571,23.1428571 C21.7997114,23.1428571 23.1428571,21.7997114 23.1428571,20.1428571 C23.1428571,18.4860029 21.7997114,17.1428571 20.1428571,17.1428571 C18.4860029,17.1428571 17.1428571,18.4860029 17.1428571,20.1428571 C17.1428571,21.7997114 18.4860029,23.1428571 20.1428571,23.1428571 Z" id="Oval-3"></path>
            </g>
        </g>
    </g>
</svg>